<?xml version="1.0" encoding="UTF-8"?>
<svg xmlns="http://www.w3.org/2000/svg" xmlns:xlink="http://www.w3.org/1999/xlink" width="1920" height="1080" viewBox="0 0 1920 1080">
<defs>
<g>
<g id="glyph-0-0">
<path d="M 3.347656 -3.28125 L 1.03125 1.1875 L 0.621094 1.1875 L 2.804688 -2.945312 L 1.527344 -2.945312 C 1.335938 -2.945312 1.191406 -2.945312 1.085938 -2.9375 C 0.976562 -2.933594 0.878906 -2.914062 0.789062 -2.878906 C 0.722656 -2.847656 0.664062 -2.777344 0.609375 -2.660156 C 0.558594 -2.546875 0.515625 -2.398438 0.488281 -2.21875 L 0.289062 -2.21875 L 0.289062 -3.492188 L 3.347656 -3.492188 Z "/>
</g>
<g id="glyph-0-1">
<path d="M 3.34375 -3.039062 C 3.480469 -2.875 3.585938 -2.675781 3.652344 -2.453125 C 3.722656 -2.226562 3.757812 -1.992188 3.757812 -1.746094 C 3.757812 -1.453125 3.714844 -1.1875 3.628906 -0.957031 C 3.542969 -0.722656 3.429688 -0.527344 3.28125 -0.375 C 3.128906 -0.214844 2.949219 -0.0976562 2.742188 -0.015625 C 2.53125 0.0625 2.300781 0.105469 2.042969 0.105469 C 1.765625 0.105469 1.515625 0.0585938 1.296875 -0.0351562 C 1.078125 -0.128906 0.898438 -0.257812 0.761719 -0.417969 C 0.617188 -0.589844 0.511719 -0.789062 0.441406 -1.015625 C 0.371094 -1.242188 0.335938 -1.484375 0.335938 -1.746094 C 0.335938 -2.007812 0.371094 -2.242188 0.4375 -2.460938 C 0.507812 -2.679688 0.613281 -2.875 0.757812 -3.050781 C 0.898438 -3.21875 1.078125 -3.351562 1.296875 -3.449219 C 1.515625 -3.546875 1.765625 -3.597656 2.046875 -3.597656 C 2.34375 -3.597656 2.601562 -3.546875 2.8125 -3.445312 C 3.023438 -3.347656 3.203125 -3.210938 3.34375 -3.039062 M 3.035156 -1.746094 C 3.035156 -2.265625 2.949219 -2.664062 2.773438 -2.949219 C 2.59375 -3.234375 2.355469 -3.375 2.050781 -3.375 C 1.742188 -3.375 1.5 -3.234375 1.320312 -2.949219 C 1.144531 -2.664062 1.054688 -2.265625 1.054688 -1.746094 C 1.054688 -1.257812 1.140625 -0.863281 1.308594 -0.566406 C 1.480469 -0.265625 1.726562 -0.117188 2.042969 -0.117188 C 2.363281 -0.117188 2.609375 -0.265625 2.78125 -0.566406 C 2.953125 -0.863281 3.035156 -1.257812 3.035156 -1.746094 Z "/>
</g>
<g id="glyph-0-2">
<path d="M 2.566406 -3.523438 C 2.566406 -3.144531 2.460938 -2.847656 2.257812 -2.636719 C 2.050781 -2.425781 1.785156 -2.320312 1.457031 -2.320312 C 1.132812 -2.320312 0.867188 -2.425781 0.664062 -2.636719 C 0.457031 -2.847656 0.355469 -3.144531 0.355469 -3.523438 C 0.355469 -3.886719 0.457031 -4.175781 0.65625 -4.398438 C 0.855469 -4.617188 1.125 -4.730469 1.460938 -4.730469 C 1.792969 -4.730469 2.0625 -4.617188 2.261719 -4.398438 C 2.464844 -4.175781 2.566406 -3.886719 2.566406 -3.523438 M 2.015625 -3.523438 C 2.015625 -3.808594 1.96875 -4.039062 1.875 -4.222656 C 1.78125 -4.402344 1.644531 -4.492188 1.460938 -4.492188 C 1.273438 -4.492188 1.136719 -4.402344 1.042969 -4.222656 C 0.949219 -4.039062 0.90625 -3.808594 0.90625 -3.523438 C 0.90625 -3.234375 0.953125 -3.003906 1.046875 -2.824219 C 1.136719 -2.648438 1.277344 -2.558594 1.457031 -2.558594 C 1.640625 -2.558594 1.777344 -2.648438 1.875 -2.824219 C 1.96875 -3.003906 2.015625 -3.234375 2.015625 -3.523438 M 5.09375 -1.101562 C 5.09375 -0.71875 4.992188 -0.421875 4.785156 -0.210938 C 4.578125 0 4.3125 0.105469 3.988281 0.105469 C 3.660156 0.105469 3.398438 0 3.191406 -0.210938 C 2.988281 -0.421875 2.882812 -0.71875 2.882812 -1.101562 C 2.882812 -1.460938 2.984375 -1.75 3.183594 -1.972656 C 3.386719 -2.195312 3.65625 -2.304688 3.992188 -2.304688 C 4.324219 -2.304688 4.589844 -2.195312 4.792969 -1.972656 C 4.992188 -1.75 5.09375 -1.460938 5.09375 -1.101562 M 4.542969 -1.101562 C 4.542969 -1.382812 4.496094 -1.613281 4.40625 -1.796875 C 4.3125 -1.976562 4.171875 -2.066406 3.992188 -2.066406 C 3.804688 -2.066406 3.664062 -1.976562 3.574219 -1.796875 C 3.480469 -1.613281 3.433594 -1.382812 3.433594 -1.101562 C 3.433594 -0.8125 3.480469 -0.578125 3.574219 -0.398438 C 3.667969 -0.222656 3.804688 -0.132812 3.988281 -0.132812 C 4.171875 -0.132812 4.308594 -0.222656 4.402344 -0.398438 C 4.496094 -0.578125 4.542969 -0.8125 4.542969 -1.101562 M 4.878906 -4.636719 L 1.039062 0 L 0.59375 0 L 4.421875 -4.636719 Z "/>
</g>
</g>
</defs>
<g fill="rgb(96.078431%, 69.019608%, 25.490196%)" fill-opacity="1">
<use xlink:href="#glyph-0-0" x="30" y="26.112305"/>
<use xlink:href="#glyph-0-1" x="33" y="26.112305"/>
<use xlink:href="#glyph-0-2" x="37" y="26.112305"/>
</g>
</svg>
