<?xml version="1.0" encoding="UTF-8"?>
<svg xmlns="http://www.w3.org/2000/svg" xmlns:xlink="http://www.w3.org/1999/xlink" width="1920" height="1080" viewBox="0 0 1920 1080">
<defs>
<g>
<g id="glyph-0-0">
<path d="M 1.980469 1.484375 C 1.726562 1.484375 1.492188 1.453125 1.28125 1.390625 C 1.070312 1.324219 0.886719 1.238281 0.738281 1.132812 C 0.585938 1.023438 0.46875 0.898438 0.382812 0.757812 C 0.300781 0.617188 0.261719 0.46875 0.261719 0.320312 C 0.261719 0.1875 0.292969 0.0703125 0.359375 -0.0390625 C 0.421875 -0.144531 0.527344 -0.199219 0.671875 -0.199219 C 0.835938 -0.199219 0.957031 -0.160156 1.042969 -0.078125 C 1.128906 0 1.171875 0.09375 1.171875 0.195312 C 1.171875 0.28125 1.15625 0.390625 1.128906 0.523438 C 1.101562 0.65625 1.078125 0.753906 1.0625 0.808594 C 1.082031 0.835938 1.117188 0.867188 1.164062 0.90625 C 1.214844 0.949219 1.277344 0.984375 1.351562 1.015625 C 1.4375 1.058594 1.53125 1.089844 1.625 1.113281 C 1.71875 1.140625 1.855469 1.152344 2.027344 1.152344 C 2.191406 1.152344 2.347656 1.125 2.5 1.070312 C 2.648438 1.015625 2.78125 0.929688 2.894531 0.808594 C 3.015625 0.683594 3.109375 0.539062 3.175781 0.371094 C 3.242188 0.207031 3.277344 -0.0117188 3.277344 -0.285156 C 3.277344 -0.429688 3.261719 -0.578125 3.230469 -0.71875 C 3.199219 -0.863281 3.140625 -0.988281 3.054688 -1.09375 C 2.972656 -1.199219 2.855469 -1.28125 2.710938 -1.339844 C 2.566406 -1.398438 2.382812 -1.429688 2.15625 -1.429688 L 1.625 -1.429688 L 1.625 -1.894531 L 1.980469 -1.894531 C 2.355469 -1.894531 2.625 -2 2.789062 -2.207031 C 2.957031 -2.410156 3.039062 -2.722656 3.039062 -3.136719 C 3.039062 -3.476562 2.960938 -3.730469 2.800781 -3.902344 C 2.636719 -4.078125 2.410156 -4.164062 2.117188 -4.164062 C 1.976562 -4.164062 1.859375 -4.144531 1.769531 -4.113281 C 1.679688 -4.078125 1.605469 -4.042969 1.546875 -4.011719 C 1.480469 -3.972656 1.421875 -3.933594 1.378906 -3.886719 C 1.335938 -3.839844 1.304688 -3.804688 1.28125 -3.785156 C 1.300781 -3.699219 1.324219 -3.589844 1.351562 -3.464844 C 1.378906 -3.339844 1.390625 -3.21875 1.390625 -3.105469 C 1.390625 -3.003906 1.347656 -2.914062 1.261719 -2.835938 C 1.179688 -2.753906 1.050781 -2.714844 0.886719 -2.714844 C 0.742188 -2.714844 0.636719 -2.765625 0.570312 -2.867188 C 0.503906 -2.972656 0.472656 -3.089844 0.472656 -3.226562 C 0.472656 -3.367188 0.511719 -3.511719 0.589844 -3.65625 C 0.667969 -3.804688 0.785156 -3.941406 0.941406 -4.070312 C 1.09375 -4.195312 1.28125 -4.300781 1.503906 -4.378906 C 1.726562 -4.457031 1.984375 -4.496094 2.273438 -4.496094 C 2.609375 -4.496094 2.882812 -4.445312 3.101562 -4.347656 C 3.320312 -4.25 3.492188 -4.128906 3.617188 -3.988281 C 3.738281 -3.847656 3.824219 -3.703125 3.871094 -3.550781 C 3.914062 -3.398438 3.9375 -3.269531 3.9375 -3.160156 C 3.9375 -3.027344 3.917969 -2.890625 3.882812 -2.753906 C 3.84375 -2.617188 3.78125 -2.488281 3.695312 -2.371094 C 3.601562 -2.246094 3.472656 -2.128906 3.316406 -2.023438 C 3.164062 -1.917969 2.964844 -1.835938 2.730469 -1.769531 L 2.730469 -1.703125 C 2.882812 -1.691406 3.042969 -1.65625 3.214844 -1.601562 C 3.390625 -1.550781 3.542969 -1.46875 3.683594 -1.363281 C 3.828125 -1.25 3.945312 -1.109375 4.035156 -0.933594 C 4.128906 -0.757812 4.175781 -0.535156 4.175781 -0.269531 C 4.175781 0.253906 3.964844 0.675781 3.546875 1 C 3.128906 1.324219 2.609375 1.484375 1.980469 1.484375 Z "/>
</g>
<g id="glyph-0-1">
<path d="M 5.929688 -2.851562 C 5.929688 -2.363281 5.835938 -1.933594 5.652344 -1.574219 C 5.46875 -1.214844 5.226562 -0.917969 4.929688 -0.6875 C 4.632812 -0.457031 4.296875 -0.285156 3.925781 -0.171875 C 3.554688 -0.0585938 3.171875 0 2.773438 0 L 0.382812 0 L 0.382812 -0.289062 C 0.460938 -0.289062 0.5625 -0.296875 0.691406 -0.3125 C 0.816406 -0.328125 0.898438 -0.34375 0.941406 -0.363281 C 1.019531 -0.398438 1.082031 -0.449219 1.117188 -0.519531 C 1.152344 -0.589844 1.171875 -0.671875 1.171875 -0.769531 L 1.171875 -4.9375 C 1.171875 -5.027344 1.15625 -5.109375 1.125 -5.183594 C 1.09375 -5.257812 1.03125 -5.316406 0.941406 -5.359375 C 0.855469 -5.398438 0.765625 -5.429688 0.667969 -5.449219 C 0.570312 -5.46875 0.484375 -5.480469 0.414062 -5.484375 L 0.414062 -5.773438 L 2.9375 -5.773438 C 3.285156 -5.773438 3.625 -5.71875 3.964844 -5.613281 C 4.300781 -5.507812 4.59375 -5.363281 4.84375 -5.179688 C 5.179688 -4.9375 5.445312 -4.621094 5.640625 -4.230469 C 5.832031 -3.839844 5.929688 -3.382812 5.929688 -2.851562 M 4.929688 -2.855469 C 4.929688 -3.242188 4.878906 -3.59375 4.777344 -3.90625 C 4.675781 -4.21875 4.523438 -4.492188 4.324219 -4.726562 C 4.136719 -4.945312 3.910156 -5.121094 3.636719 -5.25 C 3.363281 -5.375 3.058594 -5.441406 2.726562 -5.441406 C 2.613281 -5.441406 2.488281 -5.4375 2.351562 -5.433594 C 2.210938 -5.429688 2.105469 -5.425781 2.039062 -5.425781 L 2.039062 -0.988281 C 2.039062 -0.742188 2.109375 -0.570312 2.253906 -0.476562 C 2.398438 -0.382812 2.617188 -0.332031 2.917969 -0.332031 C 3.261719 -0.332031 3.5625 -0.394531 3.820312 -0.515625 C 4.078125 -0.636719 4.289062 -0.808594 4.449219 -1.023438 C 4.617188 -1.253906 4.738281 -1.515625 4.816406 -1.816406 C 4.894531 -2.113281 4.929688 -2.460938 4.929688 -2.855469 Z "/>
</g>
<g id="glyph-0-2">
</g>
<g id="glyph-0-3">
<path d="M 5.726562 -5.484375 C 5.65625 -5.480469 5.570312 -5.464844 5.46875 -5.4375 C 5.367188 -5.410156 5.285156 -5.375 5.21875 -5.335938 C 5.128906 -5.277344 5.054688 -5.203125 5 -5.113281 C 4.941406 -5.023438 4.886719 -4.917969 4.832031 -4.796875 C 4.652344 -4.367188 4.378906 -3.695312 4.015625 -2.78125 C 3.652344 -1.867188 3.277344 -0.917969 2.894531 0.0742188 L 2.554688 0.0742188 C 2.164062 -0.976562 1.789062 -1.988281 1.425781 -2.960938 C 1.0625 -3.9375 0.8125 -4.59375 0.683594 -4.9375 C 0.652344 -5.019531 0.609375 -5.09375 0.554688 -5.15625 C 0.5 -5.222656 0.425781 -5.28125 0.335938 -5.339844 C 0.265625 -5.382812 0.183594 -5.417969 0.09375 -5.441406 C 0.00390625 -5.464844 -0.078125 -5.480469 -0.15625 -5.484375 L -0.15625 -5.773438 L 2.234375 -5.773438 L 2.234375 -5.484375 C 2.03125 -5.472656 1.859375 -5.453125 1.71875 -5.425781 C 1.582031 -5.394531 1.511719 -5.339844 1.511719 -5.265625 C 1.511719 -5.234375 1.515625 -5.199219 1.527344 -5.160156 C 1.539062 -5.117188 1.546875 -5.085938 1.554688 -5.0625 C 1.65625 -4.796875 1.816406 -4.363281 2.042969 -3.761719 C 2.269531 -3.160156 2.589844 -2.304688 3.003906 -1.195312 C 3.210938 -1.695312 3.445312 -2.289062 3.714844 -2.972656 C 3.984375 -3.65625 4.164062 -4.125 4.257812 -4.382812 C 4.347656 -4.628906 4.398438 -4.800781 4.414062 -4.894531 C 4.429688 -4.988281 4.4375 -5.066406 4.4375 -5.125 C 4.4375 -5.1875 4.40625 -5.242188 4.351562 -5.285156 C 4.296875 -5.324219 4.222656 -5.363281 4.128906 -5.390625 C 4.042969 -5.417969 3.949219 -5.4375 3.859375 -5.453125 C 3.765625 -5.464844 3.671875 -5.476562 3.578125 -5.484375 L 3.578125 -5.773438 L 5.726562 -5.773438 Z "/>
</g>
<g id="glyph-0-4">
<path d="M 4.09375 -0.0742188 C 3.964844 -0.0273438 3.855469 0.0117188 3.757812 0.0390625 C 3.660156 0.0664062 3.550781 0.0820312 3.429688 0.0820312 C 3.21875 0.0820312 3.050781 0.03125 2.921875 -0.0664062 C 2.796875 -0.167969 2.714844 -0.3125 2.679688 -0.5 L 2.65625 -0.5 C 2.480469 -0.304688 2.292969 -0.15625 2.089844 -0.0546875 C 1.886719 0.0507812 1.644531 0.101562 1.359375 0.101562 C 1.058594 0.101562 0.808594 0.0078125 0.617188 -0.175781 C 0.421875 -0.359375 0.324219 -0.601562 0.324219 -0.898438 C 0.324219 -1.054688 0.347656 -1.191406 0.390625 -1.3125 C 0.433594 -1.4375 0.5 -1.546875 0.585938 -1.644531 C 0.652344 -1.726562 0.742188 -1.796875 0.855469 -1.863281 C 0.964844 -1.925781 1.070312 -1.976562 1.167969 -2.015625 C 1.289062 -2.058594 1.539062 -2.144531 1.910156 -2.269531 C 2.285156 -2.394531 2.535156 -2.492188 2.664062 -2.5625 L 2.664062 -2.964844 C 2.664062 -3 2.65625 -3.070312 2.644531 -3.167969 C 2.628906 -3.269531 2.597656 -3.363281 2.546875 -3.453125 C 2.492188 -3.554688 2.417969 -3.640625 2.316406 -3.71875 C 2.21875 -3.792969 2.078125 -3.828125 1.894531 -3.828125 C 1.769531 -3.828125 1.65625 -3.808594 1.546875 -3.765625 C 1.441406 -3.722656 1.367188 -3.679688 1.324219 -3.632812 C 1.324219 -3.578125 1.335938 -3.5 1.359375 -3.394531 C 1.386719 -3.289062 1.398438 -3.191406 1.398438 -3.101562 C 1.398438 -3.003906 1.355469 -2.917969 1.273438 -2.839844 C 1.1875 -2.761719 1.066406 -2.722656 0.914062 -2.722656 C 0.78125 -2.722656 0.679688 -2.769531 0.617188 -2.867188 C 0.550781 -2.964844 0.519531 -3.070312 0.519531 -3.191406 C 0.519531 -3.316406 0.566406 -3.433594 0.652344 -3.546875 C 0.742188 -3.660156 0.855469 -3.765625 0.996094 -3.851562 C 1.117188 -3.929688 1.265625 -3.992188 1.441406 -4.046875 C 1.613281 -4.097656 1.785156 -4.125 1.949219 -4.125 C 2.175781 -4.125 2.375 -4.109375 2.546875 -4.078125 C 2.714844 -4.046875 2.867188 -3.980469 3.007812 -3.878906 C 3.144531 -3.777344 3.25 -3.640625 3.324219 -3.46875 C 3.394531 -3.296875 3.429688 -3.074219 3.429688 -2.804688 C 3.429688 -2.414062 3.425781 -2.070312 3.417969 -1.773438 C 3.410156 -1.472656 3.40625 -1.144531 3.40625 -0.789062 C 3.40625 -0.683594 3.425781 -0.597656 3.460938 -0.535156 C 3.496094 -0.476562 3.554688 -0.421875 3.628906 -0.378906 C 3.671875 -0.355469 3.734375 -0.339844 3.824219 -0.335938 C 3.910156 -0.335938 4 -0.332031 4.09375 -0.332031 L 4.09375 -0.0742188 M 2.671875 -2.222656 C 2.441406 -2.152344 2.242188 -2.085938 2.066406 -2.023438 C 1.894531 -1.957031 1.730469 -1.875 1.582031 -1.777344 C 1.445312 -1.683594 1.339844 -1.574219 1.261719 -1.449219 C 1.183594 -1.324219 1.144531 -1.171875 1.144531 -1 C 1.144531 -0.773438 1.203125 -0.605469 1.320312 -0.5 C 1.4375 -0.394531 1.589844 -0.339844 1.769531 -0.339844 C 1.960938 -0.339844 2.132812 -0.390625 2.277344 -0.484375 C 2.425781 -0.578125 2.546875 -0.6875 2.648438 -0.816406 Z "/>
</g>
<g id="glyph-0-5">
<path d="M 2.171875 0 L 0.214844 0 L 0.214844 -0.269531 C 0.277344 -0.273438 0.34375 -0.28125 0.414062 -0.285156 C 0.484375 -0.292969 0.542969 -0.304688 0.589844 -0.316406 C 0.664062 -0.34375 0.722656 -0.382812 0.761719 -0.445312 C 0.800781 -0.507812 0.816406 -0.585938 0.816406 -0.683594 L 0.816406 -5.335938 C 0.816406 -5.433594 0.796875 -5.523438 0.753906 -5.609375 C 0.710938 -5.695312 0.65625 -5.761719 0.589844 -5.808594 C 0.542969 -5.84375 0.453125 -5.871094 0.320312 -5.898438 C 0.191406 -5.925781 0.0859375 -5.945312 0.0078125 -5.949219 L 0.0078125 -6.210938 L 1.519531 -6.296875 L 1.574219 -6.238281 L 1.574219 -0.730469 C 1.574219 -0.636719 1.59375 -0.558594 1.628906 -0.5 C 1.664062 -0.4375 1.71875 -0.390625 1.796875 -0.359375 C 1.859375 -0.332031 1.917969 -0.3125 1.976562 -0.296875 C 2.035156 -0.285156 2.097656 -0.273438 2.171875 -0.269531 Z "/>
</g>
<g id="glyph-0-6">
<path d="M 4.59375 -0.0742188 L 3.285156 0.015625 L 3.222656 -0.0390625 L 3.222656 -0.550781 L 3.199219 -0.550781 C 3.132812 -0.480469 3.058594 -0.410156 2.980469 -0.332031 C 2.898438 -0.253906 2.804688 -0.183594 2.699219 -0.121094 C 2.578125 -0.046875 2.457031 0.0078125 2.34375 0.0429688 C 2.230469 0.0820312 2.070312 0.101562 1.863281 0.101562 C 1.507812 0.101562 1.238281 -0.015625 1.050781 -0.246094 C 0.867188 -0.476562 0.773438 -0.8125 0.773438 -1.257812 L 0.773438 -3.175781 C 0.773438 -3.273438 0.753906 -3.355469 0.71875 -3.421875 C 0.679688 -3.488281 0.628906 -3.542969 0.554688 -3.59375 C 0.507812 -3.625 0.445312 -3.648438 0.371094 -3.664062 C 0.296875 -3.679688 0.21875 -3.6875 0.136719 -3.695312 L 0.136719 -3.964844 L 1.476562 -4.0625 L 1.539062 -4.003906 L 1.539062 -1.214844 C 1.539062 -0.925781 1.601562 -0.707031 1.734375 -0.5625 C 1.863281 -0.414062 2.019531 -0.339844 2.203125 -0.339844 C 2.351562 -0.339844 2.484375 -0.363281 2.601562 -0.410156 C 2.714844 -0.457031 2.8125 -0.511719 2.894531 -0.574219 C 2.964844 -0.628906 3.03125 -0.691406 3.085938 -0.753906 C 3.140625 -0.816406 3.183594 -0.875 3.214844 -0.929688 L 3.214844 -3.203125 C 3.214844 -3.292969 3.195312 -3.371094 3.15625 -3.441406 C 3.121094 -3.507812 3.066406 -3.570312 3 -3.617188 C 2.949219 -3.648438 2.878906 -3.667969 2.78125 -3.675781 C 2.683594 -3.683594 2.578125 -3.6875 2.457031 -3.695312 L 2.457031 -3.964844 L 3.917969 -4.0625 L 3.980469 -4.003906 L 3.980469 -0.820312 C 3.980469 -0.730469 4 -0.652344 4.035156 -0.585938 C 4.074219 -0.519531 4.128906 -0.464844 4.195312 -0.417969 C 4.242188 -0.390625 4.300781 -0.371094 4.371094 -0.359375 C 4.4375 -0.351562 4.511719 -0.34375 4.59375 -0.339844 Z "/>
</g>
<g id="glyph-0-7">
<path d="M 3.855469 -0.945312 C 3.6875 -0.625 3.464844 -0.367188 3.183594 -0.179688 C 2.898438 0.0117188 2.574219 0.105469 2.210938 0.105469 C 1.886719 0.105469 1.605469 0.046875 1.359375 -0.0664062 C 1.117188 -0.179688 0.917969 -0.332031 0.761719 -0.527344 C 0.605469 -0.722656 0.484375 -0.953125 0.410156 -1.210938 C 0.332031 -1.472656 0.292969 -1.75 0.292969 -2.039062 C 0.292969 -2.300781 0.335938 -2.554688 0.417969 -2.804688 C 0.5 -3.054688 0.621094 -3.28125 0.78125 -3.484375 C 0.9375 -3.675781 1.128906 -3.832031 1.355469 -3.949219 C 1.585938 -4.066406 1.84375 -4.125 2.128906 -4.125 C 2.421875 -4.125 2.671875 -4.078125 2.878906 -3.988281 C 3.089844 -3.894531 3.257812 -3.769531 3.390625 -3.609375 C 3.515625 -3.457031 3.605469 -3.277344 3.667969 -3.070312 C 3.730469 -2.867188 3.757812 -2.640625 3.757812 -2.402344 L 3.757812 -2.132812 L 1.101562 -2.132812 C 1.101562 -1.867188 1.128906 -1.628906 1.179688 -1.414062 C 1.226562 -1.199219 1.308594 -1.011719 1.414062 -0.847656 C 1.523438 -0.691406 1.660156 -0.566406 1.832031 -0.472656 C 2 -0.382812 2.207031 -0.335938 2.441406 -0.335938 C 2.683594 -0.335938 2.890625 -0.394531 3.066406 -0.507812 C 3.242188 -0.621094 3.410156 -0.824219 3.574219 -1.117188 L 3.855469 -0.945312 M 2.957031 -2.472656 C 2.957031 -2.625 2.945312 -2.789062 2.917969 -2.960938 C 2.894531 -3.132812 2.851562 -3.277344 2.796875 -3.394531 C 2.734375 -3.519531 2.648438 -3.621094 2.539062 -3.699219 C 2.429688 -3.777344 2.289062 -3.816406 2.121094 -3.816406 C 1.835938 -3.816406 1.597656 -3.699219 1.410156 -3.460938 C 1.222656 -3.226562 1.117188 -2.894531 1.101562 -2.472656 Z "/>
</g>
<g id="glyph-0-8">
<path d="M 7.347656 0 L 4.796875 0 L 4.796875 -0.289062 C 4.890625 -0.292969 5.007812 -0.300781 5.152344 -0.316406 C 5.296875 -0.332031 5.398438 -0.355469 5.453125 -0.386719 C 5.535156 -0.4375 5.597656 -0.496094 5.636719 -0.5625 C 5.675781 -0.628906 5.695312 -0.714844 5.695312 -0.8125 L 5.695312 -5.011719 L 5.636719 -5.011719 L 3.667969 -0.09375 L 3.460938 -0.09375 L 1.585938 -5.113281 L 1.535156 -5.113281 L 1.535156 -1.667969 C 1.535156 -1.335938 1.554688 -1.082031 1.597656 -0.90625 C 1.640625 -0.734375 1.703125 -0.609375 1.789062 -0.53125 C 1.851562 -0.476562 1.972656 -0.421875 2.160156 -0.371094 C 2.347656 -0.320312 2.46875 -0.292969 2.527344 -0.289062 L 2.527344 0 L 0.195312 0 L 0.195312 -0.289062 C 0.316406 -0.300781 0.445312 -0.320312 0.578125 -0.351562 C 0.714844 -0.378906 0.816406 -0.425781 0.890625 -0.484375 C 0.984375 -0.558594 1.050781 -0.675781 1.085938 -0.835938 C 1.121094 -0.992188 1.140625 -1.253906 1.140625 -1.625 L 1.140625 -4.578125 C 1.140625 -4.75 1.117188 -4.886719 1.078125 -4.996094 C 1.039062 -5.105469 0.980469 -5.195312 0.902344 -5.261719 C 0.820312 -5.335938 0.714844 -5.390625 0.59375 -5.425781 C 0.472656 -5.460938 0.351562 -5.480469 0.230469 -5.484375 L 0.230469 -5.773438 L 2.199219 -5.773438 L 3.855469 -1.441406 L 5.265625 -5.066406 C 5.316406 -5.199219 5.363281 -5.335938 5.398438 -5.484375 C 5.433594 -5.628906 5.453125 -5.726562 5.457031 -5.773438 L 7.339844 -5.773438 L 7.339844 -5.484375 C 7.265625 -5.480469 7.167969 -5.46875 7.050781 -5.449219 C 6.929688 -5.425781 6.84375 -5.40625 6.792969 -5.386719 C 6.699219 -5.355469 6.636719 -5.300781 6.605469 -5.222656 C 6.570312 -5.148438 6.554688 -5.066406 6.554688 -4.976562 L 6.554688 -0.8125 C 6.554688 -0.71875 6.570312 -0.640625 6.605469 -0.574219 C 6.636719 -0.507812 6.699219 -0.453125 6.792969 -0.402344 C 6.839844 -0.375 6.925781 -0.351562 7.050781 -0.328125 C 7.175781 -0.304688 7.273438 -0.292969 7.347656 -0.289062 Z "/>
</g>
<g id="glyph-0-9">
<path d="M 3.960938 -3.535156 C 4.121094 -3.347656 4.242188 -3.125 4.332031 -2.875 C 4.417969 -2.625 4.464844 -2.335938 4.464844 -2.015625 C 4.464844 -1.695312 4.410156 -1.40625 4.304688 -1.144531 C 4.199219 -0.882812 4.058594 -0.660156 3.886719 -0.476562 C 3.703125 -0.289062 3.503906 -0.144531 3.28125 -0.0429688 C 3.058594 0.0546875 2.820312 0.105469 2.570312 0.105469 C 2.332031 0.105469 2.132812 0.078125 1.976562 0.0234375 C 1.824219 -0.03125 1.695312 -0.09375 1.597656 -0.167969 L 1.566406 -0.167969 L 1.566406 1.039062 C 1.566406 1.136719 1.585938 1.21875 1.625 1.285156 C 1.660156 1.351562 1.71875 1.398438 1.796875 1.429688 C 1.863281 1.453125 1.957031 1.476562 2.078125 1.5 C 2.199219 1.523438 2.296875 1.535156 2.375 1.539062 L 2.375 1.804688 L 0.132812 1.804688 L 0.132812 1.539062 C 0.21875 1.53125 0.300781 1.527344 0.378906 1.519531 C 0.457031 1.507812 0.527344 1.496094 0.589844 1.476562 C 0.671875 1.449219 0.726562 1.402344 0.761719 1.335938 C 0.792969 1.265625 0.808594 1.1875 0.808594 1.09375 L 0.808594 -3.171875 C 0.808594 -3.253906 0.789062 -3.332031 0.75 -3.410156 C 0.707031 -3.484375 0.65625 -3.546875 0.589844 -3.59375 C 0.542969 -3.625 0.472656 -3.652344 0.386719 -3.667969 C 0.300781 -3.6875 0.214844 -3.699219 0.132812 -3.703125 L 0.132812 -3.972656 L 1.5 -4.0625 L 1.558594 -4.011719 L 1.558594 -3.558594 L 1.589844 -3.550781 C 1.730469 -3.714844 1.90625 -3.851562 2.117188 -3.960938 C 2.324219 -4.066406 2.53125 -4.121094 2.738281 -4.121094 C 2.988281 -4.121094 3.214844 -4.070312 3.425781 -3.964844 C 3.632812 -3.855469 3.808594 -3.714844 3.960938 -3.535156 M 3.296875 -0.652344 C 3.40625 -0.820312 3.484375 -1.015625 3.535156 -1.238281 C 3.585938 -1.460938 3.613281 -1.707031 3.613281 -1.980469 C 3.613281 -2.183594 3.589844 -2.386719 3.546875 -2.597656 C 3.503906 -2.804688 3.4375 -2.988281 3.34375 -3.140625 C 3.253906 -3.296875 3.132812 -3.425781 2.984375 -3.523438 C 2.832031 -3.621094 2.65625 -3.671875 2.445312 -3.671875 C 2.246094 -3.671875 2.074219 -3.625 1.933594 -3.539062 C 1.792969 -3.449219 1.667969 -3.34375 1.566406 -3.222656 L 1.566406 -0.851562 C 1.589844 -0.777344 1.632812 -0.703125 1.6875 -0.621094 C 1.742188 -0.542969 1.804688 -0.476562 1.871094 -0.417969 C 1.957031 -0.351562 2.046875 -0.296875 2.144531 -0.253906 C 2.242188 -0.210938 2.363281 -0.191406 2.503906 -0.191406 C 2.65625 -0.191406 2.800781 -0.230469 2.941406 -0.3125 C 3.082031 -0.390625 3.199219 -0.503906 3.296875 -0.652344 Z "/>
</g>
<g id="glyph-0-10">
<path d="M 2.941406 -1.964844 C 3.054688 -1.867188 3.136719 -1.753906 3.199219 -1.628906 C 3.257812 -1.5 3.289062 -1.34375 3.289062 -1.160156 C 3.289062 -0.789062 3.148438 -0.484375 2.871094 -0.25 C 2.59375 -0.0117188 2.234375 0.105469 1.789062 0.105469 C 1.558594 0.105469 1.34375 0.0625 1.144531 -0.0195312 C 0.949219 -0.105469 0.808594 -0.183594 0.722656 -0.253906 L 0.644531 0.0117188 L 0.335938 0.0117188 L 0.296875 -1.382812 L 0.578125 -1.382812 C 0.597656 -1.277344 0.644531 -1.152344 0.714844 -1.011719 C 0.785156 -0.871094 0.871094 -0.742188 0.972656 -0.628906 C 1.078125 -0.507812 1.207031 -0.40625 1.351562 -0.324219 C 1.5 -0.246094 1.667969 -0.203125 1.851562 -0.203125 C 2.113281 -0.203125 2.3125 -0.261719 2.453125 -0.382812 C 2.59375 -0.5 2.664062 -0.671875 2.664062 -0.890625 C 2.664062 -1.003906 2.644531 -1.101562 2.597656 -1.1875 C 2.554688 -1.269531 2.488281 -1.339844 2.402344 -1.402344 C 2.3125 -1.464844 2.203125 -1.523438 2.070312 -1.574219 C 1.941406 -1.621094 1.796875 -1.671875 1.636719 -1.722656 C 1.507812 -1.757812 1.367188 -1.8125 1.210938 -1.878906 C 1.054688 -1.945312 0.921875 -2.023438 0.808594 -2.113281 C 0.691406 -2.207031 0.59375 -2.324219 0.515625 -2.460938 C 0.441406 -2.601562 0.402344 -2.761719 0.402344 -2.949219 C 0.402344 -3.277344 0.523438 -3.554688 0.769531 -3.785156 C 1.011719 -4.011719 1.339844 -4.125 1.75 -4.125 C 1.90625 -4.125 2.066406 -4.105469 2.230469 -4.066406 C 2.394531 -4.023438 2.53125 -3.976562 2.632812 -3.917969 L 2.726562 -4.128906 L 3.019531 -4.128906 L 3.082031 -2.839844 L 2.800781 -2.839844 C 2.742188 -3.128906 2.621094 -3.363281 2.429688 -3.546875 C 2.242188 -3.726562 2.011719 -3.816406 1.742188 -3.816406 C 1.519531 -3.816406 1.34375 -3.761719 1.214844 -3.648438 C 1.089844 -3.535156 1.023438 -3.402344 1.023438 -3.242188 C 1.023438 -3.121094 1.046875 -3.019531 1.089844 -2.9375 C 1.128906 -2.855469 1.195312 -2.789062 1.277344 -2.730469 C 1.359375 -2.675781 1.460938 -2.625 1.585938 -2.578125 C 1.707031 -2.53125 1.859375 -2.476562 2.042969 -2.417969 C 2.222656 -2.359375 2.390625 -2.292969 2.550781 -2.21875 C 2.707031 -2.140625 2.839844 -2.058594 2.941406 -1.964844 Z "/>
</g>
</g>
</defs>
<g fill="rgb(68.627451%, 47.843137%, 77.254902%)" fill-opacity="1">
<use xlink:href="#glyph-0-0" x="30" y="27.641602"/>
<use xlink:href="#glyph-0-1" x="35" y="27.641602"/>
<use xlink:href="#glyph-0-2" x="41" y="27.641602"/>
<use xlink:href="#glyph-0-3" x="43" y="27.641602"/>
<use xlink:href="#glyph-0-4" x="49" y="27.641602"/>
<use xlink:href="#glyph-0-5" x="53" y="27.641602"/>
<use xlink:href="#glyph-0-6" x="55" y="27.641602"/>
<use xlink:href="#glyph-0-7" x="60" y="27.641602"/>
<use xlink:href="#glyph-0-2" x="64" y="27.641602"/>
<use xlink:href="#glyph-0-8" x="66" y="27.641602"/>
<use xlink:href="#glyph-0-4" x="74" y="27.641602"/>
<use xlink:href="#glyph-0-9" x="78" y="27.641602"/>
<use xlink:href="#glyph-0-10" x="83" y="27.641602"/>
</g>
</svg>
