<?xml version="1.0" encoding="UTF-8"?>
<svg xmlns="http://www.w3.org/2000/svg" xmlns:xlink="http://www.w3.org/1999/xlink" width="1920" height="1080" viewBox="0 0 1920 1080">
<defs>
<g>
<g id="glyph-0-0">
<path d="M 7.425781 -4.9375 C 7.367188 -4.933594 7.296875 -4.921875 7.214844 -4.894531 C 7.132812 -4.867188 7.058594 -4.835938 6.992188 -4.792969 C 6.90625 -4.738281 6.835938 -4.679688 6.785156 -4.609375 C 6.730469 -4.539062 6.6875 -4.441406 6.648438 -4.316406 C 6.472656 -3.753906 6.273438 -3.09375 6.042969 -2.34375 C 5.8125 -1.589844 5.566406 -0.785156 5.300781 0.0664062 L 4.960938 0.0664062 L 3.648438 -3.9375 L 2.285156 0.0664062 L 1.960938 0.0664062 C 1.722656 -0.789062 1.472656 -1.675781 1.210938 -2.59375 C 0.953125 -3.515625 0.78125 -4.128906 0.691406 -4.441406 C 0.671875 -4.519531 0.636719 -4.585938 0.59375 -4.644531 C 0.550781 -4.703125 0.496094 -4.753906 0.421875 -4.804688 C 0.359375 -4.847656 0.289062 -4.878906 0.207031 -4.898438 C 0.125 -4.917969 0.0507812 -4.929688 -0.015625 -4.9375 L -0.015625 -5.195312 L 2.105469 -5.195312 L 2.105469 -4.9375 C 1.917969 -4.925781 1.761719 -4.910156 1.628906 -4.882812 C 1.5 -4.855469 1.433594 -4.808594 1.433594 -4.746094 C 1.433594 -4.722656 1.4375 -4.6875 1.445312 -4.648438 C 1.453125 -4.609375 1.457031 -4.578125 1.460938 -4.550781 C 1.519531 -4.335938 1.617188 -3.980469 1.761719 -3.488281 C 1.902344 -2.992188 2.113281 -2.25 2.394531 -1.261719 L 3.691406 -5.125 L 4.050781 -5.125 L 5.359375 -1.175781 C 5.535156 -1.785156 5.6875 -2.3125 5.816406 -2.769531 C 5.941406 -3.222656 6.046875 -3.609375 6.132812 -3.933594 C 6.191406 -4.160156 6.226562 -4.316406 6.242188 -4.398438 C 6.257812 -4.484375 6.261719 -4.554688 6.261719 -4.613281 C 6.261719 -4.695312 6.207031 -4.765625 6.09375 -4.824219 C 5.980469 -4.878906 5.796875 -4.917969 5.542969 -4.9375 L 5.542969 -5.195312 L 7.425781 -5.195312 Z "/>
</g>
<g id="glyph-0-1">
<path d="M 4.191406 0 L 2.417969 0 L 2.417969 -0.242188 C 2.472656 -0.246094 2.535156 -0.25 2.605469 -0.257812 C 2.671875 -0.261719 2.726562 -0.269531 2.773438 -0.285156 C 2.839844 -0.308594 2.890625 -0.347656 2.925781 -0.402344 C 2.957031 -0.457031 2.972656 -0.527344 2.972656 -0.617188 L 2.972656 -2.472656 C 2.972656 -2.726562 2.914062 -2.925781 2.792969 -3.066406 C 2.671875 -3.203125 2.523438 -3.273438 2.347656 -3.273438 C 2.222656 -3.273438 2.105469 -3.253906 1.996094 -3.214844 C 1.886719 -3.171875 1.789062 -3.125 1.703125 -3.066406 C 1.621094 -3.003906 1.558594 -2.941406 1.511719 -2.882812 C 1.46875 -2.820312 1.433594 -2.769531 1.410156 -2.726562 L 1.410156 -0.652344 C 1.410156 -0.570312 1.425781 -0.5 1.460938 -0.445312 C 1.492188 -0.394531 1.542969 -0.351562 1.609375 -0.320312 C 1.664062 -0.296875 1.71875 -0.28125 1.777344 -0.265625 C 1.835938 -0.253906 1.898438 -0.246094 1.964844 -0.242188 L 1.964844 0 L 0.199219 0 L 0.199219 -0.242188 C 0.253906 -0.246094 0.3125 -0.253906 0.371094 -0.257812 C 0.433594 -0.265625 0.484375 -0.273438 0.523438 -0.285156 C 0.59375 -0.308594 0.644531 -0.347656 0.679688 -0.402344 C 0.710938 -0.457031 0.730469 -0.527344 0.730469 -0.617188 L 0.730469 -4.824219 C 0.730469 -4.90625 0.710938 -4.988281 0.671875 -5.070312 C 0.632812 -5.15625 0.585938 -5.21875 0.523438 -5.257812 C 0.480469 -5.289062 0.402344 -5.3125 0.292969 -5.328125 C 0.179688 -5.339844 0.0898438 -5.347656 0.0234375 -5.355469 L 0.0234375 -5.589844 L 1.359375 -5.667969 L 1.410156 -5.613281 L 1.410156 -3.09375 L 1.425781 -3.09375 C 1.503906 -3.175781 1.578125 -3.246094 1.644531 -3.308594 C 1.710938 -3.371094 1.796875 -3.4375 1.90625 -3.503906 C 1.996094 -3.5625 2.109375 -3.613281 2.234375 -3.652344 C 2.359375 -3.691406 2.5 -3.710938 2.65625 -3.710938 C 2.980469 -3.710938 3.226562 -3.609375 3.402344 -3.402344 C 3.574219 -3.199219 3.664062 -2.90625 3.664062 -2.523438 L 3.664062 -0.644531 C 3.664062 -0.558594 3.675781 -0.488281 3.707031 -0.4375 C 3.738281 -0.386719 3.789062 -0.34375 3.859375 -0.316406 C 3.917969 -0.292969 3.96875 -0.277344 4.015625 -0.265625 C 4.058594 -0.253906 4.121094 -0.246094 4.191406 -0.242188 Z "/>
</g>
<g id="glyph-0-2">
<path d="M 3.472656 -0.851562 C 3.320312 -0.5625 3.117188 -0.332031 2.863281 -0.160156 C 2.609375 0.0078125 2.316406 0.09375 1.988281 0.09375 C 1.699219 0.09375 1.445312 0.0429688 1.226562 -0.0585938 C 1.007812 -0.160156 0.828125 -0.300781 0.683594 -0.476562 C 0.542969 -0.652344 0.4375 -0.855469 0.367188 -1.089844 C 0.296875 -1.324219 0.265625 -1.574219 0.265625 -1.835938 C 0.265625 -2.070312 0.300781 -2.300781 0.375 -2.523438 C 0.449219 -2.75 0.558594 -2.953125 0.703125 -3.132812 C 0.84375 -3.308594 1.015625 -3.449219 1.222656 -3.554688 C 1.425781 -3.660156 1.660156 -3.714844 1.914062 -3.714844 C 2.179688 -3.714844 2.40625 -3.671875 2.59375 -3.589844 C 2.78125 -3.503906 2.933594 -3.390625 3.050781 -3.25 C 3.164062 -3.113281 3.246094 -2.949219 3.300781 -2.765625 C 3.355469 -2.578125 3.382812 -2.378906 3.382812 -2.160156 L 3.382812 -1.917969 L 0.992188 -1.917969 C 0.992188 -1.679688 1.015625 -1.464844 1.058594 -1.273438 C 1.105469 -1.078125 1.175781 -0.910156 1.273438 -0.761719 C 1.371094 -0.621094 1.492188 -0.507812 1.648438 -0.425781 C 1.800781 -0.34375 1.984375 -0.304688 2.195312 -0.304688 C 2.414062 -0.304688 2.601562 -0.355469 2.757812 -0.457031 C 2.917969 -0.558594 3.070312 -0.742188 3.214844 -1.007812 L 3.472656 -0.851562 M 2.664062 -2.226562 C 2.664062 -2.363281 2.652344 -2.507812 2.628906 -2.664062 C 2.605469 -2.820312 2.566406 -2.949219 2.515625 -3.054688 C 2.460938 -3.167969 2.382812 -3.257812 2.285156 -3.328125 C 2.1875 -3.398438 2.0625 -3.433594 1.90625 -3.433594 C 1.652344 -3.433594 1.4375 -3.328125 1.269531 -3.117188 C 1.097656 -2.902344 1.007812 -2.605469 0.992188 -2.226562 Z "/>
</g>
<g id="glyph-0-3">
<path d="M 3.027344 -3.144531 C 3.027344 -3.019531 2.996094 -2.910156 2.9375 -2.8125 C 2.875 -2.71875 2.78125 -2.667969 2.65625 -2.667969 C 2.519531 -2.667969 2.414062 -2.703125 2.34375 -2.777344 C 2.269531 -2.847656 2.234375 -2.925781 2.234375 -3.011719 C 2.234375 -3.0625 2.238281 -3.113281 2.246094 -3.15625 C 2.253906 -3.199219 2.261719 -3.246094 2.269531 -3.289062 C 2.15625 -3.289062 2.023438 -3.242188 1.867188 -3.148438 C 1.714844 -3.054688 1.582031 -2.925781 1.476562 -2.753906 L 1.476562 -0.652344 C 1.476562 -0.566406 1.492188 -0.496094 1.523438 -0.441406 C 1.558594 -0.390625 1.609375 -0.347656 1.679688 -0.320312 C 1.742188 -0.296875 1.820312 -0.28125 1.917969 -0.265625 C 2.011719 -0.253906 2.097656 -0.246094 2.167969 -0.242188 L 2.167969 0 L 0.265625 0 L 0.265625 -0.242188 C 0.320312 -0.246094 0.378906 -0.25 0.4375 -0.257812 C 0.496094 -0.261719 0.550781 -0.269531 0.59375 -0.285156 C 0.660156 -0.308594 0.710938 -0.347656 0.746094 -0.402344 C 0.777344 -0.457031 0.792969 -0.527344 0.792969 -0.613281 L 0.792969 -2.84375 C 0.792969 -2.917969 0.777344 -2.992188 0.742188 -3.066406 C 0.707031 -3.136719 0.65625 -3.195312 0.59375 -3.242188 C 0.546875 -3.269531 0.492188 -3.292969 0.429688 -3.304688 C 0.363281 -3.320312 0.296875 -3.328125 0.222656 -3.332031 L 0.222656 -3.574219 L 1.425781 -3.65625 L 1.476562 -3.601562 L 1.476562 -3.09375 L 1.492188 -3.09375 C 1.644531 -3.292969 1.8125 -3.441406 2 -3.546875 C 2.183594 -3.648438 2.355469 -3.699219 2.507812 -3.699219 C 2.664062 -3.699219 2.789062 -3.648438 2.882812 -3.546875 C 2.980469 -3.449219 3.027344 -3.3125 3.027344 -3.144531 Z "/>
</g>
<g id="glyph-0-4">
</g>
<g id="glyph-0-5">
<path d="M 2.015625 0 L 0.269531 0 L 0.269531 -0.242188 C 0.328125 -0.246094 0.386719 -0.25 0.445312 -0.257812 C 0.503906 -0.261719 0.554688 -0.269531 0.601562 -0.285156 C 0.667969 -0.308594 0.71875 -0.347656 0.753906 -0.402344 C 0.785156 -0.457031 0.800781 -0.527344 0.800781 -0.613281 L 0.800781 -2.84375 C 0.800781 -2.921875 0.785156 -2.992188 0.75 -3.054688 C 0.714844 -3.121094 0.664062 -3.175781 0.601562 -3.21875 C 0.554688 -3.25 0.488281 -3.273438 0.398438 -3.292969 C 0.3125 -3.316406 0.230469 -3.328125 0.15625 -3.332031 L 0.15625 -3.574219 L 1.433594 -3.65625 L 1.484375 -3.601562 L 1.484375 -0.660156 C 1.484375 -0.574219 1.5 -0.503906 1.53125 -0.445312 C 1.566406 -0.390625 1.617188 -0.347656 1.6875 -0.320312 C 1.738281 -0.300781 1.792969 -0.28125 1.84375 -0.269531 C 1.894531 -0.253906 1.949219 -0.246094 2.015625 -0.242188 L 2.015625 0 M 1.554688 -5.078125 C 1.554688 -4.941406 1.511719 -4.820312 1.417969 -4.714844 C 1.328125 -4.609375 1.214844 -4.558594 1.082031 -4.558594 C 0.957031 -4.558594 0.847656 -4.609375 0.757812 -4.707031 C 0.664062 -4.804688 0.617188 -4.917969 0.617188 -5.046875 C 0.617188 -5.179688 0.664062 -5.296875 0.757812 -5.398438 C 0.847656 -5.496094 0.957031 -5.546875 1.082031 -5.546875 C 1.21875 -5.546875 1.332031 -5.5 1.421875 -5.40625 C 1.511719 -5.3125 1.554688 -5.203125 1.554688 -5.078125 Z "/>
</g>
<g id="glyph-0-6">
<path d="M 2.648438 -1.769531 C 2.746094 -1.679688 2.824219 -1.578125 2.878906 -1.464844 C 2.933594 -1.351562 2.960938 -1.210938 2.960938 -1.042969 C 2.960938 -0.710938 2.832031 -0.4375 2.582031 -0.222656 C 2.332031 -0.0117188 2.007812 0.09375 1.609375 0.09375 C 1.402344 0.09375 1.207031 0.0585938 1.03125 -0.0195312 C 0.855469 -0.09375 0.726562 -0.164062 0.652344 -0.226562 L 0.578125 0.0117188 L 0.304688 0.0117188 L 0.265625 -1.246094 L 0.519531 -1.246094 C 0.539062 -1.148438 0.582031 -1.039062 0.644531 -0.910156 C 0.707031 -0.785156 0.785156 -0.667969 0.875 -0.566406 C 0.96875 -0.457031 1.085938 -0.367188 1.21875 -0.292969 C 1.351562 -0.21875 1.5 -0.183594 1.667969 -0.183594 C 1.902344 -0.183594 2.082031 -0.238281 2.207031 -0.34375 C 2.335938 -0.449219 2.398438 -0.601562 2.398438 -0.800781 C 2.398438 -0.90625 2.378906 -0.992188 2.339844 -1.066406 C 2.296875 -1.140625 2.238281 -1.207031 2.160156 -1.261719 C 2.078125 -1.320312 1.980469 -1.371094 1.863281 -1.414062 C 1.746094 -1.460938 1.617188 -1.503906 1.472656 -1.550781 C 1.355469 -1.582031 1.230469 -1.628906 1.089844 -1.691406 C 0.949219 -1.75 0.828125 -1.820312 0.730469 -1.902344 C 0.621094 -1.984375 0.535156 -2.089844 0.464844 -2.214844 C 0.398438 -2.339844 0.363281 -2.488281 0.363281 -2.65625 C 0.363281 -2.949219 0.472656 -3.199219 0.691406 -3.40625 C 0.910156 -3.609375 1.207031 -3.714844 1.574219 -3.714844 C 1.714844 -3.714844 1.859375 -3.695312 2.007812 -3.660156 C 2.15625 -3.621094 2.277344 -3.578125 2.371094 -3.527344 L 2.453125 -3.71875 L 2.71875 -3.71875 L 2.773438 -2.554688 L 2.519531 -2.554688 C 2.46875 -2.816406 2.359375 -3.027344 2.1875 -3.191406 C 2.019531 -3.355469 1.8125 -3.433594 1.566406 -3.433594 C 1.367188 -3.433594 1.210938 -3.382812 1.09375 -3.285156 C 0.980469 -3.183594 0.921875 -3.0625 0.921875 -2.917969 C 0.921875 -2.808594 0.941406 -2.71875 0.980469 -2.644531 C 1.015625 -2.570312 1.074219 -2.507812 1.148438 -2.457031 C 1.222656 -2.410156 1.316406 -2.363281 1.425781 -2.320312 C 1.539062 -2.277344 1.675781 -2.230469 1.839844 -2.175781 C 2 -2.125 2.152344 -2.0625 2.292969 -1.996094 C 2.4375 -1.925781 2.554688 -1.851562 2.648438 -1.769531 Z "/>
</g>
<g id="glyph-0-7">
<path d="M 2.492188 -0.15625 C 2.335938 -0.0898438 2.183594 -0.0351562 2.042969 0.0078125 C 1.902344 0.0546875 1.726562 0.078125 1.523438 0.078125 C 1.21875 0.078125 1.007812 0 0.882812 -0.152344 C 0.761719 -0.304688 0.699219 -0.519531 0.699219 -0.796875 L 0.699219 -3.246094 L 0.046875 -3.246094 L 0.046875 -3.597656 L 0.714844 -3.597656 L 0.714844 -4.71875 L 1.378906 -4.71875 L 1.378906 -3.597656 L 2.417969 -3.597656 L 2.417969 -3.246094 L 1.386719 -3.246094 L 1.386719 -1.226562 C 1.386719 -1.074219 1.394531 -0.949219 1.40625 -0.847656 C 1.414062 -0.746094 1.441406 -0.65625 1.484375 -0.582031 C 1.523438 -0.511719 1.582031 -0.457031 1.660156 -0.421875 C 1.738281 -0.382812 1.84375 -0.367188 1.972656 -0.367188 C 2.035156 -0.367188 2.125 -0.371094 2.242188 -0.382812 C 2.363281 -0.394531 2.445312 -0.40625 2.492188 -0.425781 Z "/>
</g>
<g id="glyph-0-8">
<path d="M 4.21875 -0.0664062 L 2.957031 0.015625 L 2.898438 -0.0351562 L 2.898438 -0.375 L 2.871094 -0.382812 C 2.746094 -0.238281 2.585938 -0.125 2.402344 -0.03125 C 2.214844 0.0585938 2.023438 0.101562 1.824219 0.101562 C 1.621094 0.101562 1.421875 0.0585938 1.230469 -0.0351562 C 1.039062 -0.125 0.875 -0.253906 0.730469 -0.421875 C 0.589844 -0.589844 0.472656 -0.792969 0.390625 -1.027344 C 0.304688 -1.265625 0.265625 -1.527344 0.265625 -1.8125 C 0.265625 -2.074219 0.308594 -2.320312 0.398438 -2.554688 C 0.488281 -2.789062 0.613281 -2.996094 0.773438 -3.171875 C 0.921875 -3.335938 1.101562 -3.464844 1.320312 -3.5625 C 1.535156 -3.660156 1.753906 -3.710938 1.980469 -3.710938 C 2.148438 -3.710938 2.3125 -3.6875 2.472656 -3.644531 C 2.636719 -3.601562 2.777344 -3.546875 2.894531 -3.484375 L 2.894531 -4.742188 C 2.894531 -4.84375 2.875 -4.9375 2.84375 -5.023438 C 2.808594 -5.105469 2.761719 -5.171875 2.699219 -5.214844 C 2.628906 -5.261719 2.539062 -5.292969 2.421875 -5.316406 C 2.304688 -5.335938 2.179688 -5.351562 2.046875 -5.359375 L 2.046875 -5.589844 L 3.527344 -5.667969 L 3.582031 -5.613281 L 3.582031 -0.746094 C 3.582031 -0.660156 3.597656 -0.589844 3.632812 -0.527344 C 3.664062 -0.46875 3.710938 -0.417969 3.777344 -0.378906 C 3.820312 -0.347656 3.890625 -0.328125 3.976562 -0.320312 C 4.066406 -0.316406 4.144531 -0.308594 4.21875 -0.308594 L 4.21875 -0.0664062 M 2.894531 -0.699219 L 2.894531 -2.8125 C 2.875 -2.875 2.84375 -2.945312 2.796875 -3.015625 C 2.753906 -3.089844 2.699219 -3.15625 2.632812 -3.21875 C 2.5625 -3.28125 2.480469 -3.332031 2.386719 -3.371094 C 2.289062 -3.410156 2.179688 -3.429688 2.050781 -3.429688 C 1.90625 -3.429688 1.773438 -3.394531 1.648438 -3.316406 C 1.527344 -3.242188 1.417969 -3.132812 1.320312 -2.992188 C 1.230469 -2.855469 1.160156 -2.679688 1.109375 -2.46875 C 1.054688 -2.257812 1.027344 -2.023438 1.027344 -1.769531 C 1.027344 -1.5625 1.046875 -1.378906 1.085938 -1.210938 C 1.125 -1.042969 1.191406 -0.886719 1.285156 -0.742188 C 1.371094 -0.605469 1.480469 -0.496094 1.613281 -0.414062 C 1.746094 -0.332031 1.902344 -0.289062 2.085938 -0.289062 C 2.28125 -0.289062 2.441406 -0.332031 2.570312 -0.417969 C 2.699219 -0.503906 2.804688 -0.597656 2.894531 -0.699219 Z "/>
</g>
<g id="glyph-0-9">
<path d="M 3.683594 -0.0664062 C 3.570312 -0.0234375 3.46875 0.0078125 3.382812 0.0351562 C 3.296875 0.0585938 3.195312 0.0742188 3.085938 0.0742188 C 2.898438 0.0742188 2.746094 0.0273438 2.632812 -0.0585938 C 2.519531 -0.148438 2.445312 -0.28125 2.414062 -0.449219 L 2.390625 -0.449219 C 2.234375 -0.273438 2.0625 -0.140625 1.878906 -0.046875 C 1.699219 0.046875 1.480469 0.0898438 1.222656 0.0898438 C 0.953125 0.0898438 0.730469 0.0078125 0.554688 -0.15625 C 0.378906 -0.324219 0.292969 -0.539062 0.292969 -0.808594 C 0.292969 -0.949219 0.3125 -1.074219 0.351562 -1.183594 C 0.390625 -1.292969 0.449219 -1.390625 0.527344 -1.480469 C 0.589844 -1.554688 0.667969 -1.617188 0.769531 -1.675781 C 0.867188 -1.734375 0.964844 -1.777344 1.050781 -1.8125 C 1.160156 -1.855469 1.382812 -1.929688 1.71875 -2.042969 C 2.054688 -2.15625 2.28125 -2.242188 2.398438 -2.308594 L 2.398438 -2.667969 C 2.398438 -2.703125 2.390625 -2.761719 2.378906 -2.851562 C 2.363281 -2.941406 2.335938 -3.027344 2.292969 -3.109375 C 2.242188 -3.199219 2.175781 -3.277344 2.085938 -3.34375 C 1.996094 -3.414062 1.871094 -3.445312 1.707031 -3.445312 C 1.59375 -3.445312 1.488281 -3.425781 1.394531 -3.390625 C 1.296875 -3.351562 1.230469 -3.3125 1.191406 -3.269531 C 1.191406 -3.222656 1.203125 -3.148438 1.226562 -3.054688 C 1.25 -2.957031 1.257812 -2.871094 1.257812 -2.789062 C 1.257812 -2.703125 1.222656 -2.625 1.144531 -2.554688 C 1.066406 -2.484375 0.960938 -2.449219 0.824219 -2.449219 C 0.703125 -2.449219 0.613281 -2.492188 0.554688 -2.578125 C 0.496094 -2.667969 0.46875 -2.761719 0.46875 -2.871094 C 0.46875 -2.984375 0.507812 -3.089844 0.585938 -3.195312 C 0.667969 -3.296875 0.769531 -3.386719 0.898438 -3.46875 C 1.007812 -3.535156 1.140625 -3.59375 1.296875 -3.640625 C 1.453125 -3.691406 1.605469 -3.714844 1.753906 -3.714844 C 1.960938 -3.714844 2.136719 -3.699219 2.289062 -3.671875 C 2.441406 -3.644531 2.582031 -3.582031 2.707031 -3.488281 C 2.832031 -3.398438 2.925781 -3.277344 2.988281 -3.121094 C 3.054688 -2.96875 3.085938 -2.765625 3.085938 -2.523438 C 3.085938 -2.175781 3.082031 -1.863281 3.078125 -1.59375 C 3.070312 -1.324219 3.066406 -1.03125 3.066406 -0.710938 C 3.066406 -0.617188 3.082031 -0.539062 3.113281 -0.484375 C 3.148438 -0.425781 3.199219 -0.378906 3.265625 -0.339844 C 3.304688 -0.320312 3.359375 -0.304688 3.441406 -0.304688 C 3.519531 -0.300781 3.601562 -0.300781 3.683594 -0.300781 L 3.683594 -0.0664062 M 2.40625 -2 C 2.199219 -1.9375 2.015625 -1.878906 1.859375 -1.820312 C 1.703125 -1.761719 1.558594 -1.6875 1.425781 -1.597656 C 1.300781 -1.515625 1.207031 -1.417969 1.136719 -1.304688 C 1.0625 -1.191406 1.027344 -1.054688 1.027344 -0.898438 C 1.027344 -0.695312 1.082031 -0.546875 1.1875 -0.449219 C 1.292969 -0.355469 1.429688 -0.308594 1.59375 -0.308594 C 1.765625 -0.308594 1.917969 -0.351562 2.050781 -0.433594 C 2.183594 -0.519531 2.292969 -0.617188 2.382812 -0.734375 Z "/>
</g>
<g id="glyph-0-10">
<path d="M 5.644531 -3.375 C 5.539062 -3.367188 5.429688 -3.324219 5.3125 -3.25 C 5.195312 -3.171875 5.105469 -3.058594 5.054688 -2.90625 C 4.929688 -2.546875 4.816406 -2.207031 4.707031 -1.886719 C 4.597656 -1.566406 4.476562 -1.207031 4.34375 -0.804688 C 4.300781 -0.679688 4.253906 -0.542969 4.210938 -0.394531 C 4.164062 -0.25 4.125 -0.109375 4.085938 0.0273438 L 3.773438 0.0273438 L 2.800781 -2.636719 L 1.824219 0.0273438 L 1.523438 0.0273438 C 1.339844 -0.515625 1.160156 -1.054688 0.988281 -1.585938 C 0.8125 -2.121094 0.65625 -2.585938 0.523438 -2.980469 C 0.484375 -3.09375 0.410156 -3.1875 0.300781 -3.25 C 0.191406 -3.316406 0.0859375 -3.355469 -0.0195312 -3.367188 L -0.0195312 -3.609375 L 1.59375 -3.609375 L 1.59375 -3.355469 C 1.511719 -3.351562 1.425781 -3.339844 1.332031 -3.3125 C 1.238281 -3.289062 1.1875 -3.25 1.1875 -3.195312 C 1.1875 -3.183594 1.195312 -3.164062 1.203125 -3.132812 C 1.210938 -3.097656 1.222656 -3.066406 1.234375 -3.027344 C 1.3125 -2.773438 1.398438 -2.488281 1.5 -2.171875 C 1.597656 -1.855469 1.726562 -1.445312 1.882812 -0.941406 L 2.800781 -3.539062 L 3.15625 -3.539062 L 4.097656 -0.976562 C 4.203125 -1.304688 4.308594 -1.621094 4.410156 -1.925781 C 4.515625 -2.230469 4.605469 -2.519531 4.683594 -2.785156 C 4.703125 -2.851562 4.71875 -2.910156 4.734375 -2.960938 C 4.75 -3.011719 4.757812 -3.066406 4.757812 -3.117188 C 4.757812 -3.160156 4.738281 -3.199219 4.699219 -3.234375 C 4.660156 -3.269531 4.613281 -3.296875 4.554688 -3.316406 C 4.507812 -3.335938 4.453125 -3.351562 4.398438 -3.363281 C 4.339844 -3.371094 4.296875 -3.375 4.269531 -3.375 L 4.269531 -3.609375 L 5.644531 -3.609375 Z "/>
</g>
<g id="glyph-0-11">
<path d="M 2.824219 -4.871094 C 2.957031 -4.726562 3.058594 -4.570312 3.121094 -4.390625 C 3.1875 -4.214844 3.21875 -4.023438 3.21875 -3.8125 C 3.21875 -3.363281 3.074219 -2.992188 2.785156 -2.707031 C 2.5 -2.421875 2.101562 -2.25 1.601562 -2.191406 L 1.601562 -1.378906 L 1.261719 -1.378906 L 1.261719 -2.769531 C 1.417969 -2.78125 1.570312 -2.804688 1.722656 -2.84375 C 1.871094 -2.882812 2.007812 -2.945312 2.128906 -3.027344 C 2.253906 -3.121094 2.347656 -3.230469 2.417969 -3.355469 C 2.488281 -3.484375 2.523438 -3.664062 2.523438 -3.894531 C 2.523438 -4.261719 2.445312 -4.542969 2.289062 -4.738281 C 2.136719 -4.933594 1.910156 -5.03125 1.609375 -5.03125 C 1.5 -5.03125 1.402344 -5.015625 1.316406 -4.980469 C 1.230469 -4.949219 1.171875 -4.917969 1.132812 -4.890625 C 1.144531 -4.832031 1.160156 -4.746094 1.179688 -4.636719 C 1.203125 -4.527344 1.210938 -4.441406 1.210938 -4.382812 C 1.210938 -4.292969 1.171875 -4.210938 1.09375 -4.136719 C 1.015625 -4.0625 0.902344 -4.023438 0.753906 -4.023438 C 0.621094 -4.023438 0.527344 -4.070312 0.472656 -4.160156 C 0.417969 -4.25 0.386719 -4.355469 0.386719 -4.476562 C 0.386719 -4.574219 0.414062 -4.667969 0.46875 -4.761719 C 0.523438 -4.855469 0.605469 -4.949219 0.722656 -5.035156 C 0.820312 -5.113281 0.953125 -5.179688 1.117188 -5.238281 C 1.285156 -5.292969 1.460938 -5.320312 1.640625 -5.320312 C 1.898438 -5.320312 2.128906 -5.28125 2.328125 -5.199219 C 2.527344 -5.117188 2.695312 -5.007812 2.824219 -4.871094 M 1.945312 -0.421875 C 1.945312 -0.285156 1.894531 -0.167969 1.796875 -0.0703125 C 1.699219 0.0234375 1.578125 0.0742188 1.441406 0.0742188 C 1.304688 0.0742188 1.1875 0.0234375 1.089844 -0.0703125 C 0.992188 -0.167969 0.941406 -0.285156 0.941406 -0.421875 C 0.941406 -0.558594 0.992188 -0.675781 1.089844 -0.773438 C 1.1875 -0.875 1.304688 -0.921875 1.441406 -0.921875 C 1.578125 -0.921875 1.699219 -0.875 1.796875 -0.773438 C 1.894531 -0.675781 1.945312 -0.558594 1.945312 -0.421875 Z "/>
</g>
</g>
</defs>
<g fill="rgb(36.470588%, 67.843137%, 88.627451%)" fill-opacity="1">
<use xlink:href="#glyph-0-0" x="30" y="26.87793"/>
<use xlink:href="#glyph-0-1" x="37" y="26.87793"/>
<use xlink:href="#glyph-0-2" x="41" y="26.87793"/>
<use xlink:href="#glyph-0-3" x="45" y="26.87793"/>
<use xlink:href="#glyph-0-2" x="48" y="26.87793"/>
<use xlink:href="#glyph-0-4" x="52" y="26.87793"/>
<use xlink:href="#glyph-0-5" x="54" y="26.87793"/>
<use xlink:href="#glyph-0-6" x="56" y="26.87793"/>
<use xlink:href="#glyph-0-4" x="59" y="26.87793"/>
<use xlink:href="#glyph-0-7" x="61" y="26.87793"/>
<use xlink:href="#glyph-0-1" x="64" y="26.87793"/>
<use xlink:href="#glyph-0-2" x="68" y="26.87793"/>
<use xlink:href="#glyph-0-4" x="72" y="26.87793"/>
<use xlink:href="#glyph-0-8" x="74" y="26.87793"/>
<use xlink:href="#glyph-0-3" x="78" y="26.87793"/>
<use xlink:href="#glyph-0-9" x="81" y="26.87793"/>
<use xlink:href="#glyph-0-10" x="85" y="26.87793"/>
<use xlink:href="#glyph-0-2" x="91" y="26.87793"/>
<use xlink:href="#glyph-0-3" x="95" y="26.87793"/>
<use xlink:href="#glyph-0-11" x="98" y="26.87793"/>
</g>
</svg>
